# xmcd
#
# Track frame offsets:
#  150
#  17679
#  42600
#  66428
#  82898
#  109778
#  130575
#  149921
#  167531
#  190027
#  211075
#  236640
#  256553
#  277518
#
# Disc length: 3980 seconds
#
# Revision: 0
# Processed by: cddbd v1.5.1PL2 Copyright (c) Steve Scherf et al.
# Submitted via: Collectorz.com_Music_Collector 6.9
#
DISCID=b80f8a0e
DTITLE=The Hot Tamales - Hot Tamales
DYEAR=2000
DGENRE=Acoustic Blues
TTITLE0=Crawlin' Kingsnake
TTITLE1=Malted Milk Blues
TTITLE2=Crossroads Blues
TTITLE3=Dust My Broom
TTITLE4=The Same Thing
TTITLE5=Come On Into My Kitchen
TTITLE6=Mean Old World
TTITLE7=St. James Infirmery Blues
TTITLE8=Mean Red Spider
TTITLE9=I Got My Mojo Workin'
TTITLE10=Nobody Knows You
TTITLE11=Walkin' Blues
TTITLE12=Lonesome Fresco
TTITLE13=I Want Jesus To Walk With Me
EXTD=
EXTT0=
EXTT1=
EXTT2=
EXTT3=
EXTT4=
EXTT5=
EXTT6=
EXTT7=
EXTT8=
EXTT9=
EXTT10=
EXTT11=
EXTT12=
EXTT13=
PLAYORDER=
